<svg xmlns="http://www.w3.org/2000/svg" width="1200" height="620" viewBox="0 0 1200 620">
<rect width="1200" height="620" fill="#F4F0E7"/>
<rect x="34" y="32" width="1132" height="556" rx="18" fill="#FFFCF5" stroke="#2B302D" stroke-width="1.5"/>
<text x="65" y="72" font-family="Georgia, serif" font-size="25" font-weight="bold" fill="#202723">High-loop alignment forms a transient trough, not a persistent change point</text>
<text x="65" y="96" font-family="Georgia, serif" font-size="14" fill="#59615C">Post-partial registered recovery; geometric means across seeds 101, 103, 107</text>
<text x="92" y="128" font-family="Georgia, serif" font-size="17" font-weight="bold" fill="#202723">A. Tied visit alignment</text>
<text x="680" y="128" font-family="Georgia, serif" font-size="17" font-weight="bold" fill="#202723">B. Tied / untied gradient stress</text>
<line x1="92.0" y1="510.00" x2="555.0" y2="510.00" stroke="#D8D2C6" stroke-width="1"/>
<text x="78" y="515.00" text-anchor="end" font-family="Consolas, monospace" font-size="12" fill="#59615C">0</text>
<line x1="92.0" y1="393.33" x2="555.0" y2="393.33" stroke="#D8D2C6" stroke-width="1"/>
<text x="78" y="398.33" text-anchor="end" font-family="Consolas, monospace" font-size="12" fill="#59615C">1</text>
<line x1="92.0" y1="276.67" x2="555.0" y2="276.67" stroke="#D8D2C6" stroke-width="1"/>
<text x="78" y="281.67" text-anchor="end" font-family="Consolas, monospace" font-size="12" fill="#59615C">2</text>
<line x1="92.0" y1="160.00" x2="555.0" y2="160.00" stroke="#D8D2C6" stroke-width="1"/>
<text x="78" y="165.00" text-anchor="end" font-family="Consolas, monospace" font-size="12" fill="#59615C">3</text>
<line x1="680.0" y1="510.00" x2="1143.0" y2="510.00" stroke="#D8D2C6" stroke-width="1"/>
<text x="666" y="515.00" text-anchor="end" font-family="Consolas, monospace" font-size="12" fill="#59615C">1</text>
<line x1="680.0" y1="460.00" x2="1143.0" y2="460.00" stroke="#D8D2C6" stroke-width="1"/>
<text x="666" y="465.00" text-anchor="end" font-family="Consolas, monospace" font-size="12" fill="#59615C">2</text>
<line x1="680.0" y1="410.00" x2="1143.0" y2="410.00" stroke="#D8D2C6" stroke-width="1"/>
<text x="666" y="415.00" text-anchor="end" font-family="Consolas, monospace" font-size="12" fill="#59615C">4</text>
<line x1="680.0" y1="360.00" x2="1143.0" y2="360.00" stroke="#D8D2C6" stroke-width="1"/>
<text x="666" y="365.00" text-anchor="end" font-family="Consolas, monospace" font-size="12" fill="#59615C">8</text>
<line x1="680.0" y1="310.00" x2="1143.0" y2="310.00" stroke="#D8D2C6" stroke-width="1"/>
<text x="666" y="315.00" text-anchor="end" font-family="Consolas, monospace" font-size="12" fill="#59615C">16</text>
<line x1="680.0" y1="260.00" x2="1143.0" y2="260.00" stroke="#D8D2C6" stroke-width="1"/>
<text x="666" y="265.00" text-anchor="end" font-family="Consolas, monospace" font-size="12" fill="#59615C">32</text>
<line x1="680.0" y1="210.00" x2="1143.0" y2="210.00" stroke="#D8D2C6" stroke-width="1"/>
<text x="666" y="215.00" text-anchor="end" font-family="Consolas, monospace" font-size="12" fill="#59615C">64</text>
<line x1="680.0" y1="160.00" x2="1143.0" y2="160.00" stroke="#D8D2C6" stroke-width="1"/>
<text x="666" y="165.00" text-anchor="end" font-family="Consolas, monospace" font-size="12" fill="#59615C">128</text>
<line x1="680.0" y1="393.90" x2="1143.0" y2="393.90" stroke="#202723" stroke-width="1.5" stroke-dasharray="7 6"/>
<text x="686.0" y="411.90" text-anchor="start" font-family="Consolas, monospace" font-size="11" fill="#202723">registered support threshold = 5x</text>
<text x="92.00" y="535" text-anchor="middle" font-family="Consolas, monospace" font-size="12" fill="#59615C">0</text>
<text x="680.00" y="535" text-anchor="middle" font-family="Consolas, monospace" font-size="12" fill="#59615C">512</text>
<text x="246.33" y="535" text-anchor="middle" font-family="Consolas, monospace" font-size="12" fill="#59615C">1024</text>
<text x="834.33" y="535" text-anchor="middle" font-family="Consolas, monospace" font-size="12" fill="#59615C">1024</text>
<text x="400.67" y="535" text-anchor="middle" font-family="Consolas, monospace" font-size="12" fill="#59615C">2048</text>
<text x="988.67" y="535" text-anchor="middle" font-family="Consolas, monospace" font-size="12" fill="#59615C">2048</text>
<text x="555.00" y="535" text-anchor="middle" font-family="Consolas, monospace" font-size="12" fill="#59615C">4096</text>
<text x="1143.00" y="535" text-anchor="middle" font-family="Consolas, monospace" font-size="12" fill="#59615C">4096</text>
<polyline points="92.00,297.11 246.33,259.45 400.67,240.98 555.00,212.39" fill="none" stroke="#146B74" stroke-width="4" stroke-linecap="round" stroke-linejoin="round"/>
<polyline points="680.00,365.77 834.33,370.62 988.67,374.53 1143.00,386.20" fill="none" stroke="#146B74" stroke-width="4" stroke-linecap="round" stroke-linejoin="round"/>
<circle cx="92.00" cy="297.11" r="5" fill="#FFFCF5" stroke="#146B74" stroke-width="3"/>
<circle cx="246.33" cy="259.45" r="5" fill="#FFFCF5" stroke="#146B74" stroke-width="3"/>
<circle cx="400.67" cy="240.98" r="5" fill="#FFFCF5" stroke="#146B74" stroke-width="3"/>
<circle cx="555.00" cy="212.39" r="5" fill="#FFFCF5" stroke="#146B74" stroke-width="3"/>
<circle cx="680.00" cy="365.77" r="5" fill="#FFFCF5" stroke="#146B74" stroke-width="3"/>
<circle cx="834.33" cy="370.62" r="5" fill="#FFFCF5" stroke="#146B74" stroke-width="3"/>
<circle cx="988.67" cy="374.53" r="5" fill="#FFFCF5" stroke="#146B74" stroke-width="3"/>
<circle cx="1143.00" cy="386.20" r="5" fill="#FFFCF5" stroke="#146B74" stroke-width="3"/>
<polyline points="92.00,364.98 246.33,324.96 400.67,277.67 555.00,240.83" fill="none" stroke="#D9772D" stroke-width="4" stroke-linecap="round" stroke-linejoin="round"/>
<polyline points="680.00,279.95 834.33,280.55 988.67,288.29 1143.00,300.04" fill="none" stroke="#D9772D" stroke-width="4" stroke-linecap="round" stroke-linejoin="round"/>
<circle cx="92.00" cy="364.98" r="5" fill="#FFFCF5" stroke="#D9772D" stroke-width="3"/>
<circle cx="246.33" cy="324.96" r="5" fill="#FFFCF5" stroke="#D9772D" stroke-width="3"/>
<circle cx="400.67" cy="277.67" r="5" fill="#FFFCF5" stroke="#D9772D" stroke-width="3"/>
<circle cx="555.00" cy="240.83" r="5" fill="#FFFCF5" stroke="#D9772D" stroke-width="3"/>
<circle cx="680.00" cy="279.95" r="5" fill="#FFFCF5" stroke="#D9772D" stroke-width="3"/>
<circle cx="834.33" cy="280.55" r="5" fill="#FFFCF5" stroke="#D9772D" stroke-width="3"/>
<circle cx="988.67" cy="288.29" r="5" fill="#FFFCF5" stroke="#D9772D" stroke-width="3"/>
<circle cx="1143.00" cy="300.04" r="5" fill="#FFFCF5" stroke="#D9772D" stroke-width="3"/>
<polyline points="92.00,417.85 246.33,397.27 400.67,413.85 555.00,333.85" fill="none" stroke="#A62E2E" stroke-width="4" stroke-linecap="round" stroke-linejoin="round"/>
<polyline points="680.00,178.55 834.33,176.00 988.67,180.09 1143.00,183.42" fill="none" stroke="#A62E2E" stroke-width="4" stroke-linecap="round" stroke-linejoin="round"/>
<circle cx="92.00" cy="417.85" r="5" fill="#FFFCF5" stroke="#A62E2E" stroke-width="3"/>
<circle cx="246.33" cy="397.27" r="5" fill="#FFFCF5" stroke="#A62E2E" stroke-width="3"/>
<circle cx="400.67" cy="413.85" r="5" fill="#FFFCF5" stroke="#A62E2E" stroke-width="3"/>
<circle cx="555.00" cy="333.85" r="5" fill="#FFFCF5" stroke="#A62E2E" stroke-width="3"/>
<circle cx="680.00" cy="178.55" r="5" fill="#FFFCF5" stroke="#A62E2E" stroke-width="3"/>
<circle cx="834.33" cy="176.00" r="5" fill="#FFFCF5" stroke="#A62E2E" stroke-width="3"/>
<circle cx="988.67" cy="180.09" r="5" fill="#FFFCF5" stroke="#A62E2E" stroke-width="3"/>
<circle cx="1143.00" cy="183.42" r="5" fill="#FFFCF5" stroke="#A62E2E" stroke-width="3"/>
<line x1="400.67" y1="160.0" x2="400.67" y2="510.0" stroke="#A62E2E" stroke-width="1.5" stroke-dasharray="4 5"/>
<text x="392.67" y="178" text-anchor="end" font-family="Consolas, monospace" font-size="11" fill="#A62E2E">curvature onset</text>
<text x="323" y="567" text-anchor="middle" font-family="Georgia, serif" font-size="13" fill="#202723">state-visit exposure</text>
<text x="911" y="567" text-anchor="middle" font-family="Georgia, serif" font-size="13" fill="#202723">interval end exposure</text>
<text x="51" y="316" transform="rotate(-90 51 316)" text-anchor="middle" font-family="Georgia, serif" font-size="13" fill="#202723">kappa</text>
<text x="621" y="316" transform="rotate(-90 621 316)" text-anchor="middle" font-family="Georgia, serif" font-size="13" fill="#202723">stress ratio (log scale)</text>
<line x1="803" y1="102" x2="830" y2="102" stroke="#146B74" stroke-width="4"/>
<text x="837" y="107" font-family="Consolas, monospace" font-size="12" fill="#202723">R=16</text>
<line x1="908" y1="102" x2="935" y2="102" stroke="#D9772D" stroke-width="4"/>
<text x="942" y="107" font-family="Consolas, monospace" font-size="12" fill="#202723">R=32</text>
<line x1="1013" y1="102" x2="1040" y2="102" stroke="#A62E2E" stroke-width="4"/>
<text x="1047" y="107" font-family="Consolas, monospace" font-size="12" fill="#202723">R=64</text>
</svg>
